<?xml version="1.0" encoding="UTF-8" standalone="no"?>
<!-- Created with Inkscape (http://www.inkscape.org/) -->

<svg
   width="122.65833mm"
   height="122.65835mm"
   viewBox="0 0 463.59056 463.59061"
   version="1.1"
   id="svg1"
   xml:space="preserve"
   xmlns="http://www.w3.org/2000/svg"
   xmlns:svg="http://www.w3.org/2000/svg"><defs
     id="defs1" /><g
     id="layer1"
     transform="translate(-165.0551,-329.46454)"><g
       id="g43"
       style="display:inline"><circle
         style="display:inline;fill:#6000c2;fill-opacity:1;stroke:#000000;stroke-width:10;stroke-linecap:round;stroke-linejoin:round;stroke-dasharray:none;stroke-opacity:1"
         id="circle44"
         cx="396.8504"
         cy="561.25983"
         r="207.92606" /><circle
         style="display:none;fill:#7f9297;fill-opacity:1;stroke:none;stroke-width:5;stroke-linecap:round;stroke-linejoin:round;stroke-dasharray:none;stroke-opacity:1"
         id="path1"
         cx="396.8504"
         cy="561.25983"
         r="207.92606" /><path
         style="display:none;fill:#000000;fill-opacity:1;stroke:none;stroke-width:2;stroke-linecap:round;stroke-linejoin:round;stroke-dasharray:none;stroke-opacity:1"
         d="m 343.79688,297.72657 -22.26189,-31.04524 c -4.01781,1.58816 -7.56495,3.14635 -11.02671,4.693 l 10.36673,4.81318 18.03125,24.32812 z m -99.97474,84.80649 -37.69383,-6.21077 c -1.71802,3.96402 -3.12442,7.57404 -4.47861,11.11552 l 10.73382,-3.92696 29.95259,4.45256 z m -10.72557,130.66006 -31.04524,22.26189 c 1.58816,4.01781 3.14635,7.56495 4.693,11.02671 l 4.81318,-10.36673 24.32812,-18.03125 z m 84.80649,99.97474 -6.21077,37.69383 c 3.96402,1.71802 7.57404,3.12442 11.11552,4.47861 l -3.92696,-10.73382 4.45256,-29.95259 z m 130.66006,10.72557 22.26189,31.04524 c 4.01781,-1.58816 7.56495,-3.14635 11.02671,-4.693 l -10.36673,-4.81318 -18.03125,-24.32812 z m 99.97474,-84.80649 37.69383,6.21077 c 1.71802,-3.96402 3.12442,-7.57404 4.47861,-11.11552 l -10.73382,3.92696 -29.95259,-4.45256 z m 10.72557,-130.66006 31.04524,-22.26189 c -1.58816,-4.01781 -3.14635,-7.56495 -4.693,-11.02671 l -4.81318,10.36673 -24.32812,18.03125 z m -84.80649,-99.97474 6.21077,-37.69383 c -3.96402,-1.71802 -7.57404,-3.12442 -11.11552,-4.47861 l 3.92696,10.73382 -4.45256,29.95259 z"
         id="path42"
         transform="translate(0.67040304,100.44986)" /><circle
         style="display:none;fill:#ffffff;fill-opacity:1;stroke:none;stroke-width:5;stroke-linecap:round;stroke-linejoin:round;stroke-dasharray:none;stroke-opacity:1"
         id="circle33"
         cx="396.8504"
         cy="561.25983"
         r="180.53041" /><circle
         style="display:none;fill:#503f99;fill-opacity:1;stroke:none;stroke-width:5;stroke-linecap:round;stroke-linejoin:round;stroke-dasharray:none;stroke-opacity:1"
         id="circle2"
         cx="396.8504"
         cy="561.25983"
         r="171.3985" /><path
         style="display:none;fill:#000000;fill-opacity:1;stroke:none;stroke-width:2;stroke-linecap:round;stroke-linejoin:round;stroke-dasharray:none;stroke-opacity:1"
         d="m 338.1153,299.50815 8.19398,9.74674 45.76886,170.81171 2.33532,-1.3483 3.18584,-1.83935 -48.16438,-171.03026 -5.72565,-8.2527 z m -97.05088,88.30216 12.68601,1.09797 153.14559,88.41865 0.69793,-2.60472 0.95211,-3.55334 -154.99402,-86.8793 -9.88418,-1.78689 z m -6.18627,131.06439 9.74674,-8.19398 170.81171,-45.76886 -1.3483,-2.33532 -1.83935,-3.18584 -171.03026,48.16438 -8.2527,5.72565 z m 88.30216,97.05088 1.09797,-12.68601 88.41865,-153.14559 -2.60472,-0.69793 -3.55334,-0.95211 -86.8793,154.99402 -1.78689,9.88418 z m 131.06439,6.18627 -8.19398,-9.74674 -45.76886,-170.81171 -2.33532,1.3483 -3.18584,1.83935 48.16438,171.03026 5.72565,8.2527 z m 97.05088,-88.30216 -12.68601,-1.09797 -153.14559,-88.41865 -0.69793,2.60472 -0.95211,3.55334 154.99402,86.8793 9.88418,1.78689 z m 6.18627,-131.06439 -9.74674,8.19398 -170.81171,45.76886 1.3483,2.33532 1.83935,3.18584 171.03026,-48.16438 8.2527,-5.72565 z m -88.30216,-97.05088 -1.09797,12.68601 -88.41865,153.14559 2.60472,0.69793 3.55334,0.95211 86.8793,-154.99402 1.78689,-9.88418 z"
         id="path33"
         transform="translate(0.67040304,100.44986)" /><path
         style="fill:#000000;fill-opacity:1;stroke:none;stroke-width:10;stroke-linecap:round;stroke-linejoin:round;stroke-dasharray:none;stroke-opacity:1;paint-order:normal"
         d="m 445.71388,485.86888 -23.18432,-16.91354 -102.56373,90.01258 23.95324,55.86143 10.14045,17.10921 25.43586,18.46711 94.32258,-54.45718 z"
         id="path46" /><path
         style="display:inline;fill:#d6bf27;fill-opacity:1;stroke:#000000;stroke-width:10;stroke-linecap:round;stroke-linejoin:round;stroke-dasharray:none;stroke-opacity:1;paint-order:normal"
         d="m 579.55273,334.81055 -286.42968,154.92187 4.04101,123.27735 58.56641,14.38476 56.97265,-57.26367 14.44727,12.01562 -214.75977,203.13477 1.76368,2.42383 293.03711,-160.25196 -3.92579,-119.3496 -59.04687,-17.45899 -54.61133,56.69922 -13.69336,-11.12891 205.41016,-198.98828 z"
         id="path2" /></g><rect
       style="fill:none;fill-opacity:1;stroke:none;stroke-width:4.6155;stroke-linecap:round;stroke-linejoin:round;stroke-dasharray:none;stroke-opacity:1"
       id="rect43"
       width="463.59061"
       height="463.59061"
       x="165.0551"
       y="329.46454"
       rx="0"
       ry="0" /></g></svg>
